{"asset":{"generator":"3D Builder","version":"2.0"},"scene":0,"scenes":[{"nodes":[0]}],"nodes":[{"children":[1,2,3,4,5,6,7,8,9,10,11,12,13,14,15,16,17,18,19,20,21,22]},{"mesh":0,"matrix":[0.99999994039535522,0,0,0,0,0.99999809265136719,7.152544299060537E-7,0,0,-6.7800141323459684E-7,0.99999827146530151,0,0,-0.0056721838191151619,-0.027312584221363068,1]},{"mesh":1,"matrix":[0.99999994039535522,0,0,0,0,0.99999809265136719,7.152544299060537E-7,0,0,-6.7800141323459684E-7,0.99999827146530151,0,0,-0.0056721838191151619,-0.027312584221363068,1]},{"mesh":2,"matrix":[0.99999994039535522,0,0,0,0,0.99999809265136719,7.152544299060537E-7,0,0,-6.7800141323459684E-7,0.99999827146530151,0,0,-0.0056721838191151619,-0.027312584221363068,1]},{"mesh":3,"matrix":[0.99999994039535522,0,0,0,0,0.99999809265136719,7.152544299060537E-7,0,0,-6.7800141323459684E-7,0.99999827146530151,0,0,-0.0056721838191151619,-0.027312584221363068,1]},{"mesh":4,"matrix":[0.99999994039535522,0,0,0,0,0.99999809265136719,7.152544299060537E-7,0,0,-6.7800141323459684E-7,0.99999827146530151,0,0,-0.0056721838191151619,-0.027312584221363068,1]},{"mesh":5,"matrix":[0.99999994039535522,0,0,0,0,0.99999809265136719,7.152544299060537E-7,0,0,-6.7800141323459684E-7,0.99999827146530151,0,0,-0.0056721838191151619,-0.027312584221363068,1]},{"mesh":6,"matrix":[0.99999994039535522,0,0,0,0,0.99999809265136719,7.152544299060537E-7,0,0,-6.7800141323459684E-7,0.99999827146530151,0,0,-0.0056721838191151619,-0.027312584221363068,1]},{"mesh":7,"matrix":[0.99999994039535522,0,0,0,0,0.99999809265136719,7.152544299060537E-7,0,0,-6.7800141323459684E-7,0.99999827146530151,0,0,-0.0056721838191151619,-0.027312584221363068,1]},{"mesh":8,"matrix":[0.99999994039535522,0,0,0,0,0.99999809265136719,7.152544299060537E-7,0,0,-6.7800141323459684E-7,0.99999827146530151,0,0,-0.0056721838191151619,-0.027312584221363068,1]},{"mesh":9,"matrix":[0.99999994039535522,0,0,0,0,0.99999809265136719,7.152544299060537E-7,0,0,-6.7800141323459684E-7,0.99999827146530151,0,0,-0.0056721838191151619,-0.027312584221363068,1]},{"mesh":10,"matrix":[0.99999994039535522,0,0,0,0,0.99999809265136719,7.152544299060537E-7,0,0,-6.7800141323459684E-7,0.99999827146530151,0,0,-0.0056721838191151619,-0.027312584221363068,1]},{"mesh":11,"matrix":[0.99999994039535522,0,0,0,0,0.99999809265136719,7.152544299060537E-7,0,0,-6.7800141323459684E-7,0.99999827146530151,0,0,-0.0056721838191151619,-0.027312584221363068,1]},{"mesh":12,"matrix":[0.99999994039535522,0,0,0,0,0.99999809265136719,7.152544299060537E-7,0,0,-6.7800141323459684E-7,0.99999827146530151,0,0,-0.0056721838191151619,-0.027312584221363068,1]},{"mesh":13,"matrix":[0.99999994039535522,0,0,0,0,0.99999809265136719,7.152544299060537E-7,0,0,-6.7800141323459684E-7,0.99999827146530151,0,0,-0.0056721838191151619,-0.027312584221363068,1]},{"mesh":14,"matrix":[0.99999994039535522,0,0,0,0,0.99999809265136719,7.152544299060537E-7,0,0,-6.7800141323459684E-7,0.99999827146530151,0,0,-0.0056721838191151619,-0.027312584221363068,1]},{"mesh":15,"matrix":[0.99999994039535522,0,0,0,0,0.99999809265136719,7.152544299060537E-7,0,0,-6.7800141323459684E-7,0.99999827146530151,0,0,-0.0056721838191151619,-0.027312584221363068,1]},{"mesh":16,"matrix":[0.99999994039535522,0,0,0,0,0.99999809265136719,7.152544299060537E-7,0,0,-6.7800141323459684E-7,0.99999827146530151,0,0,-0.0056721838191151619,-0.027312584221363068,1]},{"mesh":17,"matrix":[0.99999994039535522,0,0,0,0,0.99999809265136719,7.152544299060537E-7,0,0,-6.7800141323459684E-7,0.99999827146530151,0,0,-0.0056721838191151619,-0.027312584221363068,1]},{"mesh":18,"matrix":[0.99999994039535522,0,0,0,0,0.99999809265136719,7.152544299060537E-7,0,0,-6.7800141323459684E-7,0.99999827146530151,0,0,-0.0056721838191151619,-0.027312584221363068,1]},{"mesh":19,"matrix":[0.99999994039535522,0,0,0,0,0.99999809265136719,7.152544299060537E-7,0,0,-6.7800141323459684E-7,0.99999827146530151,0,0,-0.0056721838191151619,-0.027312584221363068,1]},{"mesh":20,"matrix":[0.99999994039535522,0,0,0,0,0.99999809265136719,7.152544299060537E-7,0,0,-6.7800141323459684E-7,0.99999827146530151,0,0,-0.0056721838191151619,-0.027312584221363068,1]},{"mesh":21,"matrix":[0.99999994039535522,0,0,0,0,0.99999809265136719,7.152544299060537E-7,0,0,-6.7800141323459684E-7,0.99999827146530151,0,0,-0.0056721838191151619,-0.027312584221363068,1]}],"meshes":[{"primitives":[{"attributes":{"POSITION":0},"mode":4,"indices":3,"material":0},{"attributes":{"POSITION":1,"TEXCOORD_0":2},"mode":4,"indices":4,"material":1}]},{"primitives":[{"attributes":{"POSITION":5},"mode":4,"indices":8,"material":0},{"attributes":{"POSITION":6,"TEXCOORD_0":7},"mode":4,"indices":9,"material":1}]},{"primitives":[{"attributes":{"POSITION":10},"mode":4,"indices":11,"material":2}]},{"primitives":[{"attributes":{"POSITION":12},"mode":4,"indices":13,"material":2}]},{"primitives":[{"attributes":{"POSITION":14},"mode":4,"indices":17,"material":0},{"attributes":{"POSITION":15,"TEXCOORD_0":16},"mode":4,"indices":18,"material":1}]},{"primitives":[{"attributes":{"POSITION":19},"mode":4,"indices":22,"material":0},{"attributes":{"POSITION":20,"TEXCOORD_0":21},"mode":4,"indices":23,"material":1}]},{"primitives":[{"attributes":{"POSITION":24},"mode":4,"indices":27,"material":0},{"attributes":{"POSITION":25,"TEXCOORD_0":26},"mode":4,"indices":28,"material":1}]},{"primitives":[{"attributes":{"POSITION":29},"mode":4,"indices":32,"material":3},{"attributes":{"POSITION":30,"TEXCOORD_0":31},"mode":4,"indices":33,"material":1}]},{"primitives":[{"attributes":{"POSITION":34},"mode":4,"indices":35,"material":4}]},{"primitives":[{"attributes":{"POSITION":36},"mode":4,"indices":37,"material":5}]},{"primitives":[{"attributes":{"POSITION":38},"mode":4,"indices":39,"material":4}]},{"primitives":[{"attributes":{"POSITION":40},"mode":4,"indices":41,"material":5}]},{"primitives":[{"attributes":{"POSITION":42},"mode":4,"indices":43,"material":4}]},{"primitives":[{"attributes":{"POSITION":44},"mode":4,"indices":45,"material":5}]},{"primitives":[{"attributes":{"POSITION":46},"mode":4,"indices":47,"material":4}]},{"primitives":[{"attributes":{"POSITION":48},"mode":4,"indices":49,"material":5}]},{"primitives":[{"attributes":{"POSITION":50},"mode":4,"indices":53,"material":0},{"attributes":{"POSITION":51,"TEXCOORD_0":52},"mode":4,"indices":54,"material":1}]},{"primitives":[{"attributes":{"POSITION":55},"mode":4,"indices":56,"material":6}]},{"primitives":[{"attributes":{"POSITION":57},"mode":4,"indices":58,"material":7}]},{"primitives":[{"attributes":{"POSITION":59},"mode":4,"indices":60,"material":6}]},{"primitives":[{"attributes":{"POSITION":61},"mode":4,"indices":62,"material":6}]},{"primitives":[{"attributes":{"POSITION":63},"mode":4,"indices":64,"material":8}]}],"materials":[{"name":"0,0,0","pbrMetallicRoughness":{"baseColorFactor":[0,0,0,1],"metallicFactor":0,"roughnessFactor":1},"alphaMode":"OPAQUE"},{"pbrMetallicRoughness":{"baseColorFactor":[1,1,1,1],"metallicFactor":0,"roughnessFactor":1},"alphaMode":"OPAQUE"},{"name":"203,154,59","pbrMetallicRoughness":{"baseColorFactor":[0.59720110893249512,0.32314378023147583,0.043735191226005554,1],"metallicFactor":0,"roughnessFactor":1},"alphaMode":"OPAQUE"},{"name":"10,10,10","pbrMetallicRoughness":{"baseColorFactor":[0.0030352941248565912,0.0030352941248565912,0.0030352941248565912,1],"metallicFactor":0,"roughnessFactor":1},"alphaMode":"OPAQUE"},{"name":"5,5,5","pbrMetallicRoughness":{"baseColorFactor":[0.0015176470624282956,0.0015176470624282956,0.0015176470624282956,1],"metallicFactor":0,"roughnessFactor":1},"alphaMode":"OPAQUE"},{"name":"10,10,10_1","pbrMetallicRoughness":{"baseColorFactor":[0.0030352941248565912,0.0030352941248565912,0.0030352941248565912,1],"metallicFactor":0,"roughnessFactor":1},"alphaMode":"OPAQUE"},{"name":"190,188,186","pbrMetallicRoughness":{"baseColorFactor":[0.51491767168045044,0.50288659334182739,0.49102127552032471,1],"metallicFactor":0,"roughnessFactor":1},"alphaMode":"OPAQUE"},{"name":"190,188,186_1","pbrMetallicRoughness":{"baseColorFactor":[0.51491767168045044,0.50288659334182739,0.49102127552032471,1],"metallicFactor":0,"roughnessFactor":1},"alphaMode":"OPAQUE"},{"name":"105,105,105","pbrMetallicRoughness":{"baseColorFactor":[0.14126352965831757,0.14126352965831757,0.14126352965831757,1],"metallicFactor":0,"roughnessFactor":1},"alphaMode":"OPAQUE"}],"accessors":[{"bufferView":0,"byteOffset":0,"count":688,"componentType":5126,"type":"VEC3","min":[-0.014000000432133675,0.00800000037997961,-0.02565784752368927],"max":[0.014000000432133675,0.012000000104308128,0.05868082121014595]},{"bufferView":0,"byteOffset":8256,"count":500,"componentType":5126,"type":"VEC3","min":[-0.014000000432133675,0.00800000037997961,-0.02565784752368927],"max":[0.014000000432133675,0.012000000104308128,0.05868082121014595]},{"bufferView":1,"byteOffset":0,"count":500,"componentType":5126,"type":"VEC2"},{"bufferView":2,"byteOffset":0,"count":2646,"componentType":5125,"type":"SCALAR"},{"bufferView":2,"byteOffset":10584,"count":1506,"componentType":5125,"type":"SCALAR"},{"bufferView":3,"byteOffset":0,"count":60,"componentType":5126,"type":"VEC3","min":[-0.021933034062385559,0.019724683836102486,-0.027700001373887062],"max":[0.021933034062385559,0.023724684491753578,-0.015700001269578934]},{"bufferView":3,"byteOffset":720,"count":60,"componentType":5126,"type":"VEC3","min":[-0.021933034062385559,0.019724683836102486,-0.027700001373887062],"max":[0.021933034062385559,0.023724684491753578,-0.015700001269578934]},{"bufferView":4,"byteOffset":0,"count":60,"componentType":5126,"type":"VEC2"},{"bufferView":5,"byteOffset":0,"count":180,"componentType":5125,"type":"SCALAR"},{"bufferView":5,"byteOffset":720,"count":180,"componentType":5125,"type":"SCALAR"},{"bufferView":6,"byteOffset":0,"count":74,"componentType":5126,"type":"VEC3","min":[-0.01900000125169754,0.0045009073801338673,-0.015199093148112297],"max":[0.01900000125169754,0.0074990931898355484,-0.012200906872749329]},{"bufferView":7,"byteOffset":0,"count":432,"componentType":5125,"type":"SCALAR"},{"bufferView":8,"byteOffset":0,"count":74,"componentType":5126,"type":"VEC3","min":[-0.01900000125169754,0.0045023132115602493,0.040352314710617065],"max":[0.01900000125169754,0.0074976873584091663,0.043347690254449844]},{"bufferView":9,"byteOffset":0,"count":432,"componentType":5125,"type":"SCALAR"},{"bufferView":10,"byteOffset":0,"count":144,"componentType":5126,"type":"VEC3","min":[-0.02500000037252903,0.0040000001899898052,-0.012000000104308128],"max":[0.02500000037252903,0.00800000037997961,0.0401499979197979]},{"bufferView":10,"byteOffset":1728,"count":144,"componentType":5126,"type":"VEC3","min":[-0.02500000037252903,0.0040000001899898052,-0.012000000104308128],"max":[0.02500000037252903,0.00800000037997961,0.0401499979197979]},{"bufferView":11,"byteOffset":0,"count":144,"componentType":5126,"type":"VEC2"},{"bufferView":12,"byteOffset":0,"count":432,"componentType":5125,"type":"SCALAR"},{"bufferView":12,"byteOffset":1728,"count":444,"componentType":5125,"type":"SCALAR"},{"bufferView":13,"byteOffset":0,"count":286,"componentType":5126,"type":"VEC3","min":[-0.02500000037252903,-0,-0.02565784752368927],"max":[0.02500000037252903,0.0040000001899898052,0.052500002086162567]},{"bufferView":13,"byteOffset":3432,"count":332,"componentType":5126,"type":"VEC3","min":[-0.02500000037252903,-0,-0.02565784752368927],"max":[0.02500000037252903,0.0040000001899898052,0.052500002086162567]},{"bufferView":14,"byteOffset":0,"count":332,"componentType":5126,"type":"VEC2"},{"bufferView":15,"byteOffset":0,"count":858,"componentType":5125,"type":"SCALAR"},{"bufferView":15,"byteOffset":3432,"count":1014,"componentType":5125,"type":"SCALAR"},{"bufferView":16,"byteOffset":0,"count":184,"componentType":5126,"type":"VEC3","min":[-0.024499882012605667,0.0040000001899898052,0.043850000947713852],"max":[0.024499882012605667,0.00800000037997961,0.061750002205371857]},{"bufferView":16,"byteOffset":2208,"count":184,"componentType":5126,"type":"VEC3","min":[-0.024499882012605667,0.0040000001899898052,0.043850000947713852],"max":[0.024499882012605667,0.00800000037997961,0.061750002205371857]},{"bufferView":17,"byteOffset":0,"count":184,"componentType":5126,"type":"VEC2"},{"bufferView":18,"byteOffset":0,"count":552,"componentType":5125,"type":"SCALAR"},{"bufferView":18,"byteOffset":2208,"count":576,"componentType":5125,"type":"SCALAR"},{"bufferView":19,"byteOffset":0,"count":106,"componentType":5126,"type":"VEC3","min":[-0.014000000432133675,0.0040000001899898052,-0.025686981156468391],"max":[0.014000000432133675,0.00800000037997961,-0.01530000101774931]},{"bufferView":19,"byteOffset":1272,"count":106,"componentType":5126,"type":"VEC3","min":[-0.014000000432133675,0.0040000001899898052,-0.025686981156468391],"max":[0.014000000432133675,0.00800000037997961,-0.01530000101774931]},{"bufferView":20,"byteOffset":0,"count":106,"componentType":5126,"type":"VEC2"},{"bufferView":21,"byteOffset":0,"count":318,"componentType":5125,"type":"SCALAR"},{"bufferView":21,"byteOffset":1272,"count":318,"componentType":5125,"type":"SCALAR"},{"bufferView":22,"byteOffset":0,"count":141,"componentType":5126,"type":"VEC3","min":[0.01576898992061615,-0.0033501912839710712,0.032592162489891052],"max":[0.018231011927127838,0.015391635708510876,0.05127253383398056]},{"bufferView":23,"byteOffset":0,"count":846,"componentType":5125,"type":"SCALAR"},{"bufferView":24,"byteOffset":0,"count":147,"componentType":5126,"type":"VEC3","min":[0.014000000432133675,-0.0016857200535014272,0.034255381673574448],"max":[0.01900000125169754,0.013615223579108715,0.049542613327503204]},{"bufferView":25,"byteOffset":0,"count":882,"componentType":5125,"type":"SCALAR"},{"bufferView":26,"byteOffset":0,"count":141,"componentType":5126,"type":"VEC3","min":[-0.018231011927127838,-0.0034235431812703609,0.032492946833372116],"max":[-0.01576898992061615,0.015247184783220291,0.051236789673566818]},{"bufferView":27,"byteOffset":0,"count":846,"componentType":5125,"type":"SCALAR"},{"bufferView":28,"byteOffset":0,"count":147,"componentType":5126,"type":"VEC3","min":[-0.01900000125169754,-0.0016423171618953347,0.034291021525859833],"max":[-0.014000000432133675,0.013670905493199825,0.049548789858818054]},{"bufferView":29,"byteOffset":0,"count":882,"componentType":5125,"type":"SCALAR"},{"bufferView":30,"byteOffset":0,"count":141,"componentType":5126,"type":"VEC3","min":[-0.018231011927127838,-0.0034244011621922255,-0.02306612953543663],"max":[-0.01576898992061615,0.015231676399707794,-0.0043205800466239452]},{"bufferView":31,"byteOffset":0,"count":846,"componentType":5125,"type":"SCALAR"},{"bufferView":32,"byteOffset":0,"count":147,"componentType":5126,"type":"VEC3","min":[-0.01900000125169754,-0.0015661231009289622,-0.021374110132455826],"max":[-0.014000000432133675,0.013698019087314606,-0.0060624163597822189]},{"bufferView":33,"byteOffset":0,"count":882,"componentType":5125,"type":"SCALAR"},{"bufferView":34,"byteOffset":0,"count":141,"componentType":5126,"type":"VEC3","min":[0.01576898992061615,-0.0033845230937004089,-0.023123886436223984],"max":[0.018231011927127838,0.015359998680651188,-0.004457659088075161]},{"bufferView":35,"byteOffset":0,"count":846,"componentType":5125,"type":"SCALAR"},{"bufferView":36,"byteOffset":0,"count":147,"componentType":5126,"type":"VEC3","min":[0.014000000432133675,-0.0015770720783621073,-0.021378809586167336],"max":[0.01900000125169754,0.013696415349841118,-0.0060703014023602009]},{"bufferView":37,"byteOffset":0,"count":882,"componentType":5125,"type":"SCALAR"},{"bufferView":38,"byteOffset":0,"count":24,"componentType":5126,"type":"VEC3","min":[-0.010400000028312206,5.6270000641234219E-6,0.05675000324845314],"max":[0.010400000028312206,0.010000000707805157,0.060750003904104233]},{"bufferView":38,"byteOffset":288,"count":24,"componentType":5126,"type":"VEC3","min":[-0.010400000028312206,5.6270000641234219E-6,0.05675000324845314],"max":[0.010400000028312206,0.010000000707805157,0.060750003904104233]},{"bufferView":39,"byteOffset":0,"count":24,"componentType":5126,"type":"VEC2"},{"bufferView":40,"byteOffset":0,"count":72,"componentType":5125,"type":"SCALAR"},{"bufferView":40,"byteOffset":288,"count":60,"componentType":5125,"type":"SCALAR"},{"bufferView":41,"byteOffset":0,"count":81,"componentType":5126,"type":"VEC3","min":[-0.0039380202069878578,0.00025000001187436283,0.016561979427933693],"max":[0.0039380202069878578,0.0162500012665987,0.024438021704554558]},{"bufferView":42,"byteOffset":0,"count":474,"componentType":5125,"type":"SCALAR"},{"bufferView":43,"byteOffset":0,"count":147,"componentType":5126,"type":"VEC3","min":[-0.0039341030642390251,0.012000000104308128,0.016630321741104126],"max":[0.0039341030642390251,0.019918516278266907,0.024369679391384125]},{"bufferView":44,"byteOffset":0,"count":870,"componentType":5125,"type":"SCALAR"},{"bufferView":45,"byteOffset":0,"count":37,"componentType":5126,"type":"VEC3","min":[-0.0025000001769512892,-0,0.046025451272726059],"max":[0.0023987321183085442,0.011869318783283234,0.050974555313587189]},{"bufferView":46,"byteOffset":0,"count":210,"componentType":5125,"type":"SCALAR"},{"bufferView":47,"byteOffset":0,"count":28,"componentType":5126,"type":"VEC3","min":[-0.0025000001769512892,-1.000000082740371E-9,-0.022162020206451416],"max":[0.0023492320906370878,0.023999571800231934,-0.017237981781363487]},{"bufferView":48,"byteOffset":0,"count":156,"componentType":5125,"type":"SCALAR"},{"bufferView":49,"byteOffset":0,"count":24,"componentType":5126,"type":"VEC3","min":[-0.010000000707805157,0.0040000001899898052,-0.008600001223385334],"max":[0.010000000707805157,0.0070000002160668373,0.011400000192224979]},{"bufferView":50,"byteOffset":0,"count":132,"componentType":5125,"type":"SCALAR"}],"bufferViews":[{"buffer":0,"byteOffset":0,"byteLength":14256,"byteStride":12,"target":34962},{"buffer":0,"byteOffset":14256,"byteLength":4000,"byteStride":8,"target":34962},{"buffer":0,"byteOffset":18256,"byteLength":16608,"target":34963},{"buffer":0,"byteOffset":34864,"byteLength":1440,"byteStride":12,"target":34962},{"buffer":0,"byteOffset":36304,"byteLength":480,"byteStride":8,"target":34962},{"buffer":0,"byteOffset":36784,"byteLength":1440,"target":34963},{"buffer":0,"byteOffset":38224,"byteLength":888,"byteStride":12,"target":34962},{"buffer":0,"byteOffset":39112,"byteLength":1728,"target":34963},{"buffer":0,"byteOffset":40840,"byteLength":888,"byteStride":12,"target":34962},{"buffer":0,"byteOffset":41728,"byteLength":1728,"target":34963},{"buffer":0,"byteOffset":43456,"byteLength":3456,"byteStride":12,"target":34962},{"buffer":0,"byteOffset":46912,"byteLength":1152,"byteStride":8,"target":34962},{"buffer":0,"byteOffset":48064,"byteLength":3504,"target":34963},{"buffer":0,"byteOffset":51568,"byteLength":7416,"byteStride":12,"target":34962},{"buffer":0,"byteOffset":58984,"byteLength":2656,"byteStride":8,"target":34962},{"buffer":0,"byteOffset":61640,"byteLength":7488,"target":34963},{"buffer":0,"byteOffset":69128,"byteLength":4416,"byteStride":12,"target":34962},{"buffer":0,"byteOffset":73544,"byteLength":1472,"byteStride":8,"target":34962},{"buffer":0,"byteOffset":75016,"byteLength":4512,"target":34963},{"buffer":0,"byteOffset":79528,"byteLength":2544,"byteStride":12,"target":34962},{"buffer":0,"byteOffset":82072,"byteLength":848,"byteStride":8,"target":34962},{"buffer":0,"byteOffset":82920,"byteLength":2544,"target":34963},{"buffer":0,"byteOffset":85464,"byteLength":1692,"byteStride":12,"target":34962},{"buffer":0,"byteOffset":87156,"byteLength":3384,"target":34963},{"buffer":0,"byteOffset":90540,"byteLength":1764,"byteStride":12,"target":34962},{"buffer":0,"byteOffset":92304,"byteLength":3528,"target":34963},{"buffer":0,"byteOffset":95832,"byteLength":1692,"byteStride":12,"target":34962},{"buffer":0,"byteOffset":97524,"byteLength":3384,"target":34963},{"buffer":0,"byteOffset":100908,"byteLength":1764,"byteStride":12,"target":34962},{"buffer":0,"byteOffset":102672,"byteLength":3528,"target":34963},{"buffer":0,"byteOffset":106200,"byteLength":1692,"byteStride":12,"target":34962},{"buffer":0,"byteOffset":107892,"byteLength":3384,"target":34963},{"buffer":0,"byteOffset":111276,"byteLength":1764,"byteStride":12,"target":34962},{"buffer":0,"byteOffset":113040,"byteLength":3528,"target":34963},{"buffer":0,"byteOffset":116568,"byteLength":1692,"byteStride":12,"target":34962},{"buffer":0,"byteOffset":118260,"byteLength":3384,"target":34963},{"buffer":0,"byteOffset":121644,"byteLength":1764,"byteStride":12,"target":34962},{"buffer":0,"byteOffset":123408,"byteLength":3528,"target":34963},{"buffer":0,"byteOffset":126936,"byteLength":576,"byteStride":12,"target":34962},{"buffer":0,"byteOffset":127512,"byteLength":192,"byteStride":8,"target":34962},{"buffer":0,"byteOffset":127704,"byteLength":528,"target":34963},{"buffer":0,"byteOffset":128232,"byteLength":972,"byteStride":12,"target":34962},{"buffer":0,"byteOffset":129204,"byteLength":1896,"target":34963},{"buffer":0,"byteOffset":131100,"byteLength":1764,"byteStride":12,"target":34962},{"buffer":0,"byteOffset":132864,"byteLength":3480,"target":34963},{"buffer":0,"byteOffset":136344,"byteLength":444,"byteStride":12,"target":34962},{"buffer":0,"byteOffset":136788,"byteLength":840,"target":34963},{"buffer":0,"byteOffset":137628,"byteLength":336,"byteStride":12,"target":34962},{"buffer":0,"byteOffset":137964,"byteLength":624,"target":34963},{"buffer":0,"byteOffset":138588,"byteLength":288,"byteStride":12,"target":34962},{"buffer":0,"byteOffset":138876,"byteLength":528,"target":34963}],"buffers":[{"byteLength":139404,"uri":"car.bin"}]}